<?xml version="1.0" encoding="UTF-8"?>
<svg width="24px" height="20px" viewBox="0 0 24 20" version="1.1" xmlns="http://www.w3.org/2000/svg" xmlns:xlink="http://www.w3.org/1999/xlink">
    <!-- Generator: sketchtool 57.1 (101010) - https://sketch.com -->
    <title>A320DC7B-DCE5-4AEF-BE00-9F4CB1139A69</title>
    <desc>Created with sketchtool.</desc>
    <g id="Home" stroke="none" stroke-width="1" fill="none" fill-rule="evenodd" stroke-linecap="round" stroke-linejoin="round">
        <g id="home/notification-see-all" transform="translate(-1319.000000, -19.000000)" stroke="#90A4AE" stroke-width="1.4">
            <g id="icons/create" transform="translate(1320.000000, 19.000000)">
                <g id="create">
                    <g id="Group_391" transform="translate(0.641667, 3.022727)">
                        <g id="Group_381">
                            <g id="Group_376">
                                <path d="M1.97358325,0.909090892 L15.791416,0.909090892 C16.7838364,0.824459482 17.6617063,1.54383882 17.7649992,2.52636363 L17.7649992,13.8500001 C17.6617063,14.8325249 16.7838364,15.5519042 15.791416,15.4672728 L1.97358325,15.4672728 C0.98116283,15.5519042 0.10329296,14.8325249 0,13.8500001 L0,2.52636363 C0.10329296,1.54383882 0.98116283,0.824459482 1.97358325,0.909090892 Z" id="Path_367"></path>
                            </g>
                        </g>
                    </g>
                    <g id="Group_392" transform="translate(3.361417, 0.636364)">
                        <g id="Group_381-2">
                            <g id="Group_376-2" fill="#FFFFFF" fill-rule="nonzero">
                                <path d="M2.02858334,0.909090912 L16.2250001,0.909090912 C17.2318128,0.812503148 18.1323418,1.53044308 18.2535834,2.52636362 L18.2535834,13.8499999 C18.1323418,14.8459204 17.2318128,15.5638603 16.2250001,15.4672726 L2.02858334,15.4672726 C1.02177064,15.5638603 0.121241641,14.8459204 0,13.8499999 L0,2.52636362 C0.121241641,1.53044308 1.02177064,0.812503148 2.02858334,0.909090912 Z" id="Path_367-2"></path>
                            </g>
                            <g id="Group_377" transform="translate(9.173083, 4.952727)">
                                <path d="M0,0 L0,6.47000009" id="Path_368"></path>
                            </g>
                            <g id="Group_378" transform="translate(5.910667, 8.188182)">
                                <path d="M0,0 L6.52391676,0" id="Path_369"></path>
                            </g>
                        </g>
                    </g>
                </g>
            </g>
        </g>
    </g>
</svg>